<svg width="112" height="48" viewBox="0 0 112 48" fill="none" xmlns="http://www.w3.org/2000/svg">
<rect x="0.5" y="0.5" width="111" height="47" rx="23.5" stroke="#D1D2D6"/>
<path d="M27.7803 24.2871H22.5244V28.2246H28.668V30H20.3008V17.2031H28.6064V18.9961H22.5244V22.5293H27.7803V24.2871ZM32.5439 30H30.4082V16.5H32.5439V30ZM37.1494 30H35.0137V20.4902H37.1494V30ZM34.8818 18.0205C34.8818 17.6924 34.9844 17.4199 35.1895 17.2031C35.4004 16.9863 35.6992 16.8779 36.0859 16.8779C36.4727 16.8779 36.7715 16.9863 36.9824 17.2031C37.1934 17.4199 37.2988 17.6924 37.2988 18.0205C37.2988 18.3428 37.1934 18.6123 36.9824 18.8291C36.7715 19.04 36.4727 19.1455 36.0859 19.1455C35.6992 19.1455 35.4004 19.04 35.1895 18.8291C34.9844 18.6123 34.8818 18.3428 34.8818 18.0205ZM44.8135 27.416C44.8135 27.0352 44.6553 26.7451 44.3389 26.5459C44.0283 26.3467 43.5098 26.1709 42.7832 26.0186C42.0566 25.8662 41.4502 25.6729 40.9639 25.4385C39.8975 24.9229 39.3643 24.1758 39.3643 23.1973C39.3643 22.377 39.71 21.6914 40.4014 21.1406C41.0928 20.5898 41.9717 20.3145 43.0381 20.3145C44.1748 20.3145 45.0918 20.5957 45.7891 21.1582C46.4922 21.7207 46.8438 22.4502 46.8438 23.3467H44.708C44.708 22.9365 44.5557 22.5967 44.251 22.3271C43.9463 22.0518 43.542 21.9141 43.0381 21.9141C42.5693 21.9141 42.1855 22.0225 41.8867 22.2393C41.5938 22.4561 41.4473 22.7461 41.4473 23.1094C41.4473 23.4375 41.585 23.6924 41.8604 23.874C42.1357 24.0557 42.6924 24.2402 43.5303 24.4277C44.3682 24.6094 45.0244 24.8291 45.499 25.0869C45.9795 25.3389 46.334 25.6436 46.5625 26.001C46.7969 26.3584 46.9141 26.792 46.9141 27.3018C46.9141 28.1572 46.5596 28.8516 45.8506 29.3848C45.1416 29.9121 44.2129 30.1758 43.0645 30.1758C42.2852 30.1758 41.5908 30.0352 40.9814 29.7539C40.3721 29.4727 39.8975 29.0859 39.5576 28.5938C39.2178 28.1016 39.0479 27.5713 39.0479 27.0029H41.1221C41.1514 27.5068 41.3418 27.8965 41.6934 28.1719C42.0449 28.4414 42.5107 28.5762 43.0908 28.5762C43.6533 28.5762 44.0811 28.4707 44.374 28.2598C44.667 28.043 44.8135 27.7617 44.8135 27.416ZM52.9697 30.1758C51.6162 30.1758 50.5176 29.751 49.6738 28.9014C48.8359 28.0459 48.417 26.9092 48.417 25.4912V25.2275C48.417 24.2783 48.5986 23.4316 48.9619 22.6875C49.3311 21.9375 49.8467 21.3545 50.5088 20.9385C51.1709 20.5225 51.9092 20.3145 52.7236 20.3145C54.0186 20.3145 55.0176 20.7275 55.7207 21.5537C56.4297 22.3799 56.7842 23.5488 56.7842 25.0605V25.9219H50.5703C50.6348 26.707 50.8955 27.3281 51.3525 27.7852C51.8154 28.2422 52.3955 28.4707 53.0928 28.4707C54.0713 28.4707 54.8682 28.0752 55.4834 27.2842L56.6348 28.3828C56.2539 28.9512 55.7441 29.3936 55.1055 29.71C54.4727 30.0205 53.7607 30.1758 52.9697 30.1758ZM52.7148 22.0283C52.1289 22.0283 51.6543 22.2334 51.291 22.6436C50.9336 23.0537 50.7051 23.625 50.6055 24.3574H54.6748V24.1992C54.6279 23.4844 54.4375 22.9453 54.1035 22.582C53.7695 22.2129 53.3066 22.0283 52.7148 22.0283Z" fill="#1A1B22"/>
<path fill-rule="evenodd" clip-rule="evenodd" d="M83 18L79 18L79 30H83V32H79C77.8954 32 77 31.1046 77 30V18C77 16.8954 77.8954 16 79 16H83V18ZM90.5856 25L86.2927 29.1339L87.707 30.4958L94.4141 24.0371L87.707 17.5784L86.2927 18.9402L90.5856 23.0741H81V25H90.5856Z" fill="#1A1B22"/>
</svg>
